<svg width="4157" height="2502" xmlns="http://www.w3.org/2000/svg" xmlns:xlink="http://www.w3.org/1999/xlink" xml:space="preserve" overflow="hidden"><g transform="translate(-122 -155)"><path d="M676.5 2091.5 995.517 2195.44" stroke="#000000" stroke-width="9.16667" stroke-miterlimit="8" fill="none" fill-rule="evenodd"/><path d="M1643.04 654.993C1676.36 505.109 1785.77 166.483 2159.53 162.042 2533.29 157.601 2698.23 503.444 2745.99 668.316 2793.76 833.188 2731 999.17 2606.04 1011.38 2481.08 1023.6 2471.64 850.952 2316.14 821.53 2160.64 792.108 1888.51 919.232 1759.67 901.468 1630.82 883.703 1609.72 804.876 1643.04 654.993Z" stroke="#000000" stroke-width="13.75" stroke-miterlimit="8" fill="none" fill-rule="evenodd"/><path d="M161.051 1915.57C194.402 1765.51 303.906 1426.49 677.997 1422.04 1052.09 1417.6 1217.18 1763.85 1264.98 1928.91 1312.78 2093.98 1249.97 2260.15 1124.9 2272.38 999.837 2284.61 990.387 2111.76 834.748 2082.31 679.108 2052.85 406.74 2180.12 277.781 2162.34 148.822 2144.55 127.7 2065.63 161.051 1915.57Z" stroke="#000000" stroke-width="13.75" stroke-miterlimit="8" fill="none" fill-rule="evenodd"/><path d="M1643.04 1915.57C1676.36 1765.51 1785.77 1426.49 2159.53 1422.04 2533.29 1417.6 2698.23 1763.85 2745.99 1928.91 2793.76 2093.98 2731 2260.15 2606.04 2272.38 2481.08 2284.61 2471.64 2111.76 2316.14 2082.31 2160.64 2052.85 1888.51 2180.12 1759.67 2162.34 1630.82 2144.55 1609.72 2065.63 1643.04 1915.57Z" stroke="#000000" stroke-width="13.75" stroke-miterlimit="8" fill="none" fill-rule="evenodd"/><path d="M3125.04 1915.57C3158.36 1765.51 3267.77 1426.49 3641.53 1422.04 4015.29 1417.6 4180.23 1763.85 4227.99 1928.91 4275.76 2093.98 4213 2260.15 4088.04 2272.38 3963.08 2284.61 3953.64 2111.76 3798.14 2082.31 3642.64 2052.85 3370.51 2180.12 3241.67 2162.34 3112.82 2144.55 3091.72 2065.63 3125.04 1915.57Z" stroke="#000000" stroke-width="13.75" stroke-miterlimit="8" fill="none" fill-rule="evenodd"/><path d="M2224.83 994 2224.83 1159.83 2133.17 1159.83 2133.17 994ZM2316.5 1114 2179 1297.33 2041.5 1114Z" fill="#E97132"/><path d="M26.7173-37.2409 337.807 185.941 284.373 260.423-26.7173 37.2409ZM354.001 84.742 422.812 303.334 193.697 308.187Z" fill="#E97132" transform="matrix(-1 0 0 1 1484.81 994)"/><path d="M2921.72 956.759 3232.81 1179.94 3179.37 1254.42 2868.28 1031.24ZM3249 1078.74 3317.81 1297.33 3088.7 1302.19Z" fill="#E97132"/><path d="M0 0 158.182 244.236" stroke="#000000" stroke-width="9.16667" stroke-miterlimit="8" fill="none" fill-rule="evenodd" transform="matrix(-1 0 0 1 678.682 1422.5)"/><path d="M519.938 1666.62 351.5 1544.5" stroke="#000000" stroke-width="9.16667" stroke-miterlimit="8" fill="none" fill-rule="evenodd"/><path d="M0 0 333.561 42.3958" stroke="#000000" stroke-width="9.16667" stroke-miterlimit="8" fill="none" fill-rule="evenodd" transform="matrix(-1 0 0 1 854.06 1624.5)"/><path d="M853.879 1624.34 678.5 1422.5" stroke="#000000" stroke-width="9.16667" stroke-miterlimit="8" fill="none" fill-rule="evenodd"/><path d="M0 0 123.008 201.84" stroke="#000000" stroke-width="9.16667" stroke-miterlimit="8" fill="none" fill-rule="evenodd" transform="matrix(1 0 0 -1 397.5 1868.34)"/><path d="M397.39 1868.46 351.5 1544.5" stroke="#000000" stroke-width="9.16667" stroke-miterlimit="8" fill="none" fill-rule="evenodd"/><path d="M178.5 1847.5 397.41 1868.29" stroke="#000000" stroke-width="9.16667" stroke-miterlimit="8" fill="none" fill-rule="evenodd"/><path d="M520.5 1666.5 643.048 1879.37" stroke="#000000" stroke-width="9.16667" stroke-miterlimit="8" fill="none" fill-rule="evenodd"/><path d="M397.5 1871.5 642.596 1879.77" stroke="#000000" stroke-width="9.16667" stroke-miterlimit="8" fill="none" fill-rule="evenodd"/><path d="M0 0 214.907 258.935" stroke="#000000" stroke-width="9.16667" stroke-miterlimit="8" fill="none" fill-rule="evenodd" transform="matrix(1 0 0 -1 639.5 1877.44)"/><path d="M0 0 214.907 43.8611" stroke="#000000" stroke-width="9.16667" stroke-miterlimit="8" fill="none" fill-rule="evenodd" transform="matrix(1 0 0 -1 847.5 1624.36)"/><path d="M850.5 1623.5 1022.63 1789.87" stroke="#000000" stroke-width="9.16667" stroke-miterlimit="8" fill="none" fill-rule="evenodd"/><path d="M0 0 43.1375 207.348" stroke="#000000" stroke-width="9.16667" stroke-miterlimit="8" fill="none" fill-rule="evenodd" transform="matrix(1 0 0 -1 1022.5 1787.85)"/><path d="M1022.5 1788.5 1230.45 1831.17" stroke="#000000" stroke-width="9.16667" stroke-miterlimit="8" fill="none" fill-rule="evenodd"/><path d="M1022.5 1788.5 1093.03 2031.13" stroke="#000000" stroke-width="9.16667" stroke-miterlimit="8" fill="none" fill-rule="evenodd"/><path d="M0 0 137.427 199.219" stroke="#000000" stroke-width="9.16667" stroke-miterlimit="8" fill="none" fill-rule="evenodd" transform="matrix(1 0 0 -1 1092.5 2030.72)"/><path d="M1273.27 2139.56 1092.5 2030.5" stroke="#000000" stroke-width="9.16667" stroke-miterlimit="8" fill="none" fill-rule="evenodd"/><path d="M0 0 99.3836 159.924" stroke="#000000" stroke-width="9.16667" stroke-miterlimit="8" fill="none" fill-rule="evenodd" transform="matrix(-1 0 0 1 1092.88 2030.5)"/><path d="M935.5 1942.5 1092.65 2032.74" stroke="#000000" stroke-width="9.16667" stroke-miterlimit="8" fill="none" fill-rule="evenodd"/><path d="M993.269 2187.3 935.5 1942.5" stroke="#000000" stroke-width="9.16667" stroke-miterlimit="8" fill="none" fill-rule="evenodd"/><path d="M0 0 32.7864 119.361" stroke="#000000" stroke-width="9.16667" stroke-miterlimit="8" fill="none" fill-rule="evenodd" transform="matrix(1 0 0 -1 365.5 1990.86)"/><path d="M0 0 277.882 112.933" stroke="#000000" stroke-width="9.16667" stroke-miterlimit="8" fill="none" fill-rule="evenodd" transform="matrix(-1 0 0 1 643.382 1877.5)"/><path d="M364.624 1991.96 178.5 1847.5" stroke="#000000" stroke-width="9.16667" stroke-miterlimit="8" fill="none" fill-rule="evenodd"/><path d="M0 0 16.3784 167.858" stroke="#000000" stroke-width="9.16667" stroke-miterlimit="8" fill="none" fill-rule="evenodd" transform="matrix(1 0 0 -1 346.5 2158.36)"/><path d="M0 0 292.778 276.189" stroke="#000000" stroke-width="9.16667" stroke-miterlimit="8" fill="none" fill-rule="evenodd" transform="matrix(1 0 0 -1 346.5 2158.69)"/><path d="M679.028 2082.34 639.5 1880.5" stroke="#000000" stroke-width="9.16667" stroke-miterlimit="8" fill="none" fill-rule="evenodd"/><path d="M0 0 251.092 140.115" stroke="#000000" stroke-width="9.16667" stroke-miterlimit="8" fill="none" fill-rule="evenodd" transform="matrix(1 0 0 -1 687.5 2082.61)"/><path d="M639.5 1883.5 938.719 1944.41" stroke="#000000" stroke-width="9.16667" stroke-miterlimit="8" fill="none" fill-rule="evenodd"/><path d="M0 0 82.5238 153.691" stroke="#000000" stroke-width="9.16667" stroke-miterlimit="8" fill="none" fill-rule="evenodd" transform="matrix(1 0 0 -1 938.5 1946.19)"/><path d="M938.447 1948.88 851.5 1623.5" stroke="#000000" stroke-width="9.16667" stroke-miterlimit="8" fill="none" fill-rule="evenodd"/><rect x="1519.5" y="1379.5" width="168" height="169" stroke="#000000" stroke-width="9.16667" stroke-miterlimit="8" fill="none"/><rect x="1687.5" y="1379.5" width="169" height="169" stroke="#000000" stroke-width="9.16667" stroke-miterlimit="8" fill="none"/><rect x="1519.5" y="1548.5" width="168" height="169" stroke="#000000" stroke-width="9.16667" stroke-miterlimit="8" fill="none"/><rect x="1687.5" y="1548.5" width="169" height="169" stroke="#000000" stroke-width="9.16667" stroke-miterlimit="8" fill="none"/><rect x="1519.5" y="1717.5" width="168" height="169" stroke="#000000" stroke-width="9.16667" stroke-miterlimit="8" fill="none"/><rect x="1687.5" y="1717.5" width="169" height="169" stroke="#000000" stroke-width="9.16667" stroke-miterlimit="8" fill="none"/><rect x="1519.5" y="1886.5" width="168" height="169" stroke="#000000" stroke-width="9.16667" stroke-miterlimit="8" fill="none"/><rect x="1687.5" y="1886.5" width="169" height="169" stroke="#000000" stroke-width="9.16667" stroke-miterlimit="8" fill="none"/><rect x="1856.5" y="1379.5" width="169" height="169" stroke="#000000" stroke-width="9.16667" stroke-miterlimit="8" fill="none"/><rect x="2025.5" y="1379.5" width="169" height="169" stroke="#000000" stroke-width="9.16667" stroke-miterlimit="8" fill="none"/><rect x="1856.5" y="1548.5" width="169" height="169" stroke="#000000" stroke-width="9.16667" stroke-miterlimit="8" fill="none"/><rect x="2025.5" y="1548.5" width="169" height="169" stroke="#000000" stroke-width="9.16667" stroke-miterlimit="8" fill="none"/><rect x="1856.5" y="1717.5" width="169" height="169" stroke="#000000" stroke-width="9.16667" stroke-miterlimit="8" fill="none"/><rect x="2025.5" y="1717.5" width="169" height="169" stroke="#000000" stroke-width="9.16667" stroke-miterlimit="8" fill="none"/><rect x="1856.5" y="1886.5" width="169" height="169" stroke="#000000" stroke-width="9.16667" stroke-miterlimit="8" fill="none"/><rect x="2025.5" y="1886.5" width="169" height="169" stroke="#000000" stroke-width="9.16667" stroke-miterlimit="8" fill="none"/><rect x="2195.5" y="1379.5" width="168" height="169" stroke="#000000" stroke-width="9.16667" stroke-miterlimit="8" fill="none"/><rect x="2363.5" y="1379.5" width="169" height="169" stroke="#000000" stroke-width="9.16667" stroke-miterlimit="8" fill="none"/><rect x="2195.5" y="1548.5" width="168" height="169" stroke="#000000" stroke-width="9.16667" stroke-miterlimit="8" fill="none"/><rect x="2363.5" y="1548.5" width="169" height="169" stroke="#000000" stroke-width="9.16667" stroke-miterlimit="8" fill="none"/><rect x="2195.5" y="1717.5" width="168" height="169" stroke="#000000" stroke-width="9.16667" stroke-miterlimit="8" fill="none"/><rect x="2363.5" y="1717.5" width="169" height="169" stroke="#000000" stroke-width="9.16667" stroke-miterlimit="8" fill="none"/><rect x="2195.5" y="1886.5" width="168" height="169" stroke="#000000" stroke-width="9.16667" stroke-miterlimit="8" fill="none"/><rect x="2363.5" y="1886.5" width="169" height="169" stroke="#000000" stroke-width="9.16667" stroke-miterlimit="8" fill="none"/><rect x="2532.5" y="1379.5" width="169" height="169" stroke="#000000" stroke-width="9.16667" stroke-miterlimit="8" fill="none"/><rect x="2701.5" y="1379.5" width="169" height="169" stroke="#000000" stroke-width="9.16667" stroke-miterlimit="8" fill="none"/><rect x="2532.5" y="1548.5" width="169" height="169" stroke="#000000" stroke-width="9.16667" stroke-miterlimit="8" fill="none"/><rect x="2701.5" y="1548.5" width="169" height="169" stroke="#000000" stroke-width="9.16667" stroke-miterlimit="8" fill="none"/><rect x="2532.5" y="1717.5" width="169" height="169" stroke="#000000" stroke-width="9.16667" stroke-miterlimit="8" fill="none"/><rect x="2701.5" y="1717.5" width="169" height="169" stroke="#000000" stroke-width="9.16667" stroke-miterlimit="8" fill="none"/><rect x="2532.5" y="1886.5" width="169" height="169" stroke="#000000" stroke-width="9.16667" stroke-miterlimit="8" fill="none"/><rect x="2701.5" y="1886.5" width="169" height="169" stroke="#000000" stroke-width="9.16667" stroke-miterlimit="8" fill="none"/><rect x="1519.5" y="2055.5" width="168" height="169" stroke="#000000" stroke-width="9.16667" stroke-miterlimit="8" fill="none"/><rect x="1687.5" y="2055.5" width="169" height="169" stroke="#000000" stroke-width="9.16667" stroke-miterlimit="8" fill="none"/><rect x="1519.5" y="2224.5" width="168" height="169" stroke="#000000" stroke-width="9.16667" stroke-miterlimit="8" fill="none"/><rect x="1687.5" y="2224.5" width="169" height="169" stroke="#000000" stroke-width="9.16667" stroke-miterlimit="8" fill="none"/><rect x="1856.5" y="2055.5" width="169" height="169" stroke="#000000" stroke-width="9.16667" stroke-miterlimit="8" fill="none"/><rect x="2025.5" y="2055.5" width="169" height="169" stroke="#000000" stroke-width="9.16667" stroke-miterlimit="8" fill="none"/><rect x="1856.5" y="2224.5" width="169" height="169" stroke="#000000" stroke-width="9.16667" stroke-miterlimit="8" fill="none"/><rect x="2025.5" y="2224.5" width="169" height="169" stroke="#000000" stroke-width="9.16667" stroke-miterlimit="8" fill="none"/><rect x="2195.5" y="2055.5" width="168" height="169" stroke="#000000" stroke-width="9.16667" stroke-miterlimit="8" fill="none"/><rect x="2363.5" y="2055.5" width="169" height="169" stroke="#000000" stroke-width="9.16667" stroke-miterlimit="8" fill="none"/><rect x="2195.5" y="2224.5" width="168" height="169" stroke="#000000" stroke-width="9.16667" stroke-miterlimit="8" fill="none"/><rect x="2363.5" y="2224.5" width="169" height="169" stroke="#000000" stroke-width="9.16667" stroke-miterlimit="8" fill="none"/><rect x="2532.5" y="2055.5" width="169" height="169" stroke="#000000" stroke-width="9.16667" stroke-miterlimit="8" fill="none"/><rect x="2701.5" y="2055.5" width="169" height="169" stroke="#000000" stroke-width="9.16667" stroke-miterlimit="8" fill="none"/><rect x="2532.5" y="2224.5" width="169" height="169" stroke="#000000" stroke-width="9.16667" stroke-miterlimit="8" fill="none"/><rect x="2701.5" y="2224.5" width="169" height="169" stroke="#000000" stroke-width="9.16667" stroke-miterlimit="8" fill="none"/><path d="M1741.5 1636.5C1741.5 1618.83 1756.05 1604.5 1774 1604.5 1791.95 1604.5 1806.5 1618.83 1806.5 1636.5 1806.5 1654.17 1791.95 1668.5 1774 1668.5 1756.05 1668.5 1741.5 1654.17 1741.5 1636.5Z" stroke="#000000" stroke-width="20.625" stroke-miterlimit="8" fill="#FFFFFF" fill-rule="evenodd"/><path d="M1739.5 1806C1739.5 1788.05 1754.05 1773.5 1772 1773.5 1789.95 1773.5 1804.5 1788.05 1804.5 1806 1804.5 1823.95 1789.95 1838.5 1772 1838.5 1754.05 1838.5 1739.5 1823.95 1739.5 1806Z" stroke="#000000" stroke-width="20.625" stroke-miterlimit="8" fill="#FFFFFF" fill-rule="evenodd"/><path d="M1739.5 1974C1739.5 1956.05 1754.05 1941.5 1772 1941.5 1789.95 1941.5 1804.5 1956.05 1804.5 1974 1804.5 1991.95 1789.95 2006.5 1772 2006.5 1754.05 2006.5 1739.5 1991.95 1739.5 1974Z" stroke="#000000" stroke-width="20.625" stroke-miterlimit="8" fill="#FFFFFF" fill-rule="evenodd"/><path d="M1737.5 2147C1737.5 2129.05 1752.05 2114.5 1770 2114.5 1787.95 2114.5 1802.5 2129.05 1802.5 2147 1802.5 2164.95 1787.95 2179.5 1770 2179.5 1752.05 2179.5 1737.5 2164.95 1737.5 2147Z" stroke="#000000" stroke-width="20.625" stroke-miterlimit="8" fill="#FFFFFF" fill-rule="evenodd"/><path d="M1912.5 1636C1912.5 1618.05 1927.05 1603.5 1945 1603.5 1962.95 1603.5 1977.5 1618.05 1977.5 1636 1977.5 1653.95 1962.95 1668.5 1945 1668.5 1927.05 1668.5 1912.5 1653.95 1912.5 1636Z" stroke="#000000" stroke-width="20.625" stroke-miterlimit="8" fill="#FFFFFF" fill-rule="evenodd"/><path d="M1912.5 1806C1912.5 1788.05 1927.05 1773.5 1945 1773.5 1962.95 1773.5 1977.5 1788.05 1977.5 1806 1977.5 1823.95 1962.95 1838.5 1945 1838.5 1927.05 1838.5 1912.5 1823.95 1912.5 1806Z" stroke="#000000" stroke-width="20.625" stroke-miterlimit="8" fill="#FFFFFF" fill-rule="evenodd"/><path d="M1911.5 1974C1911.5 1956.05 1926.05 1941.5 1944 1941.5 1961.95 1941.5 1976.5 1956.05 1976.5 1974 1976.5 1991.95 1961.95 2006.5 1944 2006.5 1926.05 2006.5 1911.5 1991.95 1911.5 1974Z" stroke="#000000" stroke-width="20.625" stroke-miterlimit="8" fill="#FFFFFF" fill-rule="evenodd"/><path d="M1912.5 2146C1912.5 2128.05 1927.05 2113.5 1945 2113.5 1962.95 2113.5 1977.5 2128.05 1977.5 2146 1977.5 2163.95 1962.95 2178.5 1945 2178.5 1927.05 2178.5 1912.5 2163.95 1912.5 2146Z" stroke="#000000" stroke-width="20.625" stroke-miterlimit="8" fill="#FFFFFF" fill-rule="evenodd"/><path d="M1908.5 1473C1908.5 1455.05 1923.05 1440.5 1941 1440.5 1958.95 1440.5 1973.5 1455.05 1973.5 1473 1973.5 1490.95 1958.95 1505.5 1941 1505.5 1923.05 1505.5 1908.5 1490.95 1908.5 1473Z" stroke="#000000" stroke-width="20.625" stroke-miterlimit="8" fill="#FFFFFF" fill-rule="evenodd"/><path d="M2079.5 1632C2079.5 1614.05 2094.05 1599.5 2112 1599.5 2129.95 1599.5 2144.5 1614.05 2144.5 1632 2144.5 1649.95 2129.95 1664.5 2112 1664.5 2094.05 1664.5 2079.5 1649.95 2079.5 1632Z" stroke="#000000" stroke-width="20.625" stroke-miterlimit="8" fill="#FFFFFF" fill-rule="evenodd"/><path d="M2080.5 1802C2080.5 1784.05 2095.05 1769.5 2113 1769.5 2130.95 1769.5 2145.5 1784.05 2145.5 1802 2145.5 1819.95 2130.95 1834.5 2113 1834.5 2095.05 1834.5 2080.5 1819.95 2080.5 1802Z" stroke="#000000" stroke-width="20.625" stroke-miterlimit="8" fill="#FFFFFF" fill-rule="evenodd"/><path d="M2079.5 1969C2079.5 1951.05 2094.05 1936.5 2112 1936.5 2129.95 1936.5 2144.5 1951.05 2144.5 1969 2144.5 1986.95 2129.95 2001.5 2112 2001.5 2094.05 2001.5 2079.5 1986.95 2079.5 1969Z" stroke="#000000" stroke-width="20.625" stroke-miterlimit="8" fill="#FFFFFF" fill-rule="evenodd"/><path d="M2077.5 1468.5C2077.5 1450.83 2092.05 1436.5 2110 1436.5 2127.95 1436.5 2142.5 1450.83 2142.5 1468.5 2142.5 1486.17 2127.95 1500.5 2110 1500.5 2092.05 1500.5 2077.5 1486.17 2077.5 1468.5Z" stroke="#000000" stroke-width="20.625" stroke-miterlimit="8" fill="#FFFFFF" fill-rule="evenodd"/><path d="M2247.5 1634C2247.5 1616.05 2261.83 1601.5 2279.5 1601.5 2297.17 1601.5 2311.5 1616.05 2311.5 1634 2311.5 1651.95 2297.17 1666.5 2279.5 1666.5 2261.83 1666.5 2247.5 1651.95 2247.5 1634Z" stroke="#000000" stroke-width="20.625" stroke-miterlimit="8" fill="#FFFFFF" fill-rule="evenodd"/><path d="M2247.5 1803C2247.5 1785.05 2262.05 1770.5 2280 1770.5 2297.95 1770.5 2312.5 1785.05 2312.5 1803 2312.5 1820.95 2297.95 1835.5 2280 1835.5 2262.05 1835.5 2247.5 1820.95 2247.5 1803Z" stroke="#000000" stroke-width="20.625" stroke-miterlimit="8" fill="#FFFFFF" fill-rule="evenodd"/><path d="M2246.5 1971C2246.5 1953.05 2261.05 1938.5 2279 1938.5 2296.95 1938.5 2311.5 1953.05 2311.5 1971 2311.5 1988.95 2296.95 2003.5 2279 2003.5 2261.05 2003.5 2246.5 1988.95 2246.5 1971Z" stroke="#000000" stroke-width="20.625" stroke-miterlimit="8" fill="#FFFFFF" fill-rule="evenodd"/><path d="M2244.5 1470C2244.5 1452.05 2259.05 1437.5 2277 1437.5 2294.95 1437.5 2309.5 1452.05 2309.5 1470 2309.5 1487.95 2294.95 1502.5 2277 1502.5 2259.05 1502.5 2244.5 1487.95 2244.5 1470Z" stroke="#000000" stroke-width="20.625" stroke-miterlimit="8" fill="#FFFFFF" fill-rule="evenodd"/><path d="M2413.5 1802C2413.5 1784.05 2428.05 1769.5 2446 1769.5 2463.95 1769.5 2478.5 1784.05 2478.5 1802 2478.5 1819.95 2463.95 1834.5 2446 1834.5 2428.05 1834.5 2413.5 1819.95 2413.5 1802Z" stroke="#000000" stroke-width="20.625" stroke-miterlimit="8" fill="#FFFFFF" fill-rule="evenodd"/><path d="M2414.5 1972C2414.5 1954.05 2429.05 1939.5 2447 1939.5 2464.95 1939.5 2479.5 1954.05 2479.5 1972 2479.5 1989.95 2464.95 2004.5 2447 2004.5 2429.05 2004.5 2414.5 1989.95 2414.5 1972Z" stroke="#000000" stroke-width="20.625" stroke-miterlimit="8" fill="#FFFFFF" fill-rule="evenodd"/><path d="M2413.5 2140C2413.5 2122.05 2428.05 2107.5 2446 2107.5 2463.95 2107.5 2478.5 2122.05 2478.5 2140 2478.5 2157.95 2463.95 2172.5 2446 2172.5 2428.05 2172.5 2413.5 2157.95 2413.5 2140Z" stroke="#000000" stroke-width="20.625" stroke-miterlimit="8" fill="#FFFFFF" fill-rule="evenodd"/><path d="M2411.5 1639C2411.5 1621.05 2426.05 1606.5 2444 1606.5 2461.95 1606.5 2476.5 1621.05 2476.5 1639 2476.5 1656.95 2461.95 1671.5 2444 1671.5 2426.05 1671.5 2411.5 1656.95 2411.5 1639Z" stroke="#000000" stroke-width="20.625" stroke-miterlimit="8" fill="#FFFFFF" fill-rule="evenodd"/><path d="M2583.5 1970C2583.5 1952.05 2598.05 1937.5 2616 1937.5 2633.95 1937.5 2648.5 1952.05 2648.5 1970 2648.5 1987.95 2633.95 2002.5 2616 2002.5 2598.05 2002.5 2583.5 1987.95 2583.5 1970Z" stroke="#000000" stroke-width="20.625" stroke-miterlimit="8" fill="#FFFFFF" fill-rule="evenodd"/><path d="M2584.5 2140C2584.5 2122.05 2599.05 2107.5 2617 2107.5 2634.95 2107.5 2649.5 2122.05 2649.5 2140 2649.5 2157.95 2634.95 2172.5 2617 2172.5 2599.05 2172.5 2584.5 2157.95 2584.5 2140Z" stroke="#000000" stroke-width="20.625" stroke-miterlimit="8" fill="#FFFFFF" fill-rule="evenodd"/><path d="M2581.5 1805C2581.5 1787.05 2596.05 1772.5 2614 1772.5 2631.95 1772.5 2646.5 1787.05 2646.5 1805 2646.5 1822.95 2631.95 1837.5 2614 1837.5 2596.05 1837.5 2581.5 1822.95 2581.5 1805Z" stroke="#000000" stroke-width="20.625" stroke-miterlimit="8" fill="#FFFFFF" fill-rule="evenodd"/><path d="M3394.5 1473C3394.5 1455.05 3409.05 1440.5 3427 1440.5 3444.95 1440.5 3459.5 1455.05 3459.5 1473 3459.5 1490.95 3444.95 1505.5 3427 1505.5 3409.05 1505.5 3394.5 1490.95 3394.5 1473Z" stroke="#000000" stroke-width="20.625" stroke-miterlimit="8" fill="#FFFFFF" fill-rule="evenodd"/><path d="M3205.5 1643C3205.5 1625.05 3219.83 1610.5 3237.5 1610.5 3255.17 1610.5 3269.5 1625.05 3269.5 1643 3269.5 1660.95 3255.17 1675.5 3237.5 1675.5 3219.83 1675.5 3205.5 1660.95 3205.5 1643Z" stroke="#000000" stroke-width="20.625" stroke-miterlimit="8" fill="#FFFFFF" fill-rule="evenodd"/><path d="M3111.5 1851C3111.5 1833.05 3126.05 1818.5 3144 1818.5 3161.95 1818.5 3176.5 1833.05 3176.5 1851 3176.5 1868.95 3161.95 1883.5 3144 1883.5 3126.05 1883.5 3111.5 1868.95 3111.5 1851Z" stroke="#000000" stroke-width="20.625" stroke-miterlimit="8" fill="#FFFFFF" fill-rule="evenodd"/><path d="M3091.5 2079.5C3091.5 2061.83 3106.05 2047.5 3124 2047.5 3141.95 2047.5 3156.5 2061.83 3156.5 2079.5 3156.5 2097.17 3141.95 2111.5 3124 2111.5 3106.05 2111.5 3091.5 2097.17 3091.5 2079.5Z" stroke="#000000" stroke-width="20.625" stroke-miterlimit="8" fill="#FFFFFF" fill-rule="evenodd"/><path d="M3300.5 2159C3300.5 2141.05 3315.05 2126.5 3333 2126.5 3350.95 2126.5 3365.5 2141.05 3365.5 2159 3365.5 2176.95 3350.95 2191.5 3333 2191.5 3315.05 2191.5 3300.5 2176.95 3300.5 2159Z" stroke="#000000" stroke-width="20.625" stroke-miterlimit="8" fill="#FFFFFF" fill-rule="evenodd"/><path d="M3549.5 2098C3549.5 2080.05 3564.05 2065.5 3582 2065.5 3599.95 2065.5 3614.5 2080.05 3614.5 2098 3614.5 2115.95 3599.95 2130.5 3582 2130.5 3564.05 2130.5 3549.5 2115.95 3549.5 2098Z" stroke="#000000" stroke-width="20.625" stroke-miterlimit="8" fill="#FFFFFF" fill-rule="evenodd"/><path d="M3824.5 2102C3824.5 2084.05 3839.05 2069.5 3857 2069.5 3874.95 2069.5 3889.5 2084.05 3889.5 2102 3889.5 2119.95 3874.95 2134.5 3857 2134.5 3839.05 2134.5 3824.5 2119.95 3824.5 2102Z" stroke="#000000" stroke-width="20.625" stroke-miterlimit="8" fill="#FFFFFF" fill-rule="evenodd"/><path d="M4016.5 2264C4016.5 2246.05 4031.05 2231.5 4049 2231.5 4066.95 2231.5 4081.5 2246.05 4081.5 2264 4081.5 2281.95 4066.95 2296.5 4049 2296.5 4031.05 2296.5 4016.5 2281.95 4016.5 2264Z" stroke="#000000" stroke-width="20.625" stroke-miterlimit="8" fill="#FFFFFF" fill-rule="evenodd"/><path d="M4203.5 2117C4203.5 2099.05 4218.05 2084.5 4236 2084.5 4253.95 2084.5 4268.5 2099.05 4268.5 2117 4268.5 2134.95 4253.95 2149.5 4236 2149.5 4218.05 2149.5 4203.5 2134.95 4203.5 2117Z" stroke="#000000" stroke-width="20.625" stroke-miterlimit="8" fill="#FFFFFF" fill-rule="evenodd"/><path d="M4168.5 1864C4168.5 1846.05 4183.05 1831.5 4201 1831.5 4218.95 1831.5 4233.5 1846.05 4233.5 1864 4233.5 1881.95 4218.95 1896.5 4201 1896.5 4183.05 1896.5 4168.5 1881.95 4168.5 1864Z" stroke="#000000" stroke-width="20.625" stroke-miterlimit="8" fill="#FFFFFF" fill-rule="evenodd"/><path d="M4054.5 1645.5C4054.5 1627.83 4069.05 1613.5 4087 1613.5 4104.95 1613.5 4119.5 1627.83 4119.5 1645.5 4119.5 1663.17 4104.95 1677.5 4087 1677.5 4069.05 1677.5 4054.5 1663.17 4054.5 1645.5Z" stroke="#000000" stroke-width="20.625" stroke-miterlimit="8" fill="#FFFFFF" fill-rule="evenodd"/><path d="M3865.5 1486C3865.5 1468.05 3880.05 1453.5 3898 1453.5 3915.95 1453.5 3930.5 1468.05 3930.5 1486 3930.5 1503.95 3915.95 1518.5 3898 1518.5 3880.05 1518.5 3865.5 1503.95 3865.5 1486Z" stroke="#000000" stroke-width="20.625" stroke-miterlimit="8" fill="#FFFFFF" fill-rule="evenodd"/><path d="M3637.5 1423C3637.5 1405.05 3652.05 1390.5 3670 1390.5 3687.95 1390.5 3702.5 1405.05 3702.5 1423 3702.5 1440.95 3687.95 1455.5 3670 1455.5 3652.05 1455.5 3637.5 1440.95 3637.5 1423Z" stroke="#000000" stroke-width="20.625" stroke-miterlimit="8" fill="#FFFFFF" fill-rule="evenodd"/><text font-family="Times New Roman,Times New Roman_MSFontService,sans-serif" font-weight="400" font-size="128" transform="matrix(1 0 0 1 450.27 2549)">(a) FEM</text><text font-family="Times New Roman,Times New Roman_MSFontService,sans-serif" font-weight="400" font-size="128" transform="matrix(1 0 0 1 1963.69 2542)">(b) FDM</text><text font-family="Times New Roman,Times New Roman_MSFontService,sans-serif" font-weight="400" font-size="128" transform="matrix(1 0 0 1 3487.09 2543)">(c) BEM</text><path d="M351.498 2164.18 181.5 1853.5" stroke="#000000" stroke-width="9.16667" stroke-miterlimit="8" fill="none" fill-rule="evenodd"/><path d="M0 0 10.59 260.504" stroke="#000000" stroke-width="9.16667" stroke-miterlimit="8" fill="none" fill-rule="evenodd" transform="matrix(1 0 0 -1 168.5 2110)"/><path d="M170.5 2108.5 350.704 2158.5" stroke="#000000" stroke-width="9.16667" stroke-miterlimit="8" fill="none" fill-rule="evenodd"/><path d="M0 0 336.506 71.7681" stroke="#000000" stroke-width="9.16667" stroke-miterlimit="8" fill="none" fill-rule="evenodd" transform="matrix(1 0 0 -1 348.5 2156.27)"/><path d="M993.5 2190.5 1125.12 2272.74" stroke="#000000" stroke-width="9.16667" stroke-miterlimit="8" fill="none" fill-rule="evenodd"/><path d="M0 0 142.571 136.551" stroke="#000000" stroke-width="9.16667" stroke-miterlimit="8" fill="none" fill-rule="evenodd" transform="matrix(1 0 0 -1 1125.5 2272.05)"/><path d="M1124.6 2271.72 1096.5 2032.5" stroke="#000000" stroke-width="9.16667" stroke-miterlimit="8" fill="none" fill-rule="evenodd"/><path d="M1269.03 2137.55 1230.5 1834.5" stroke="#000000" stroke-width="9.16667" stroke-miterlimit="8" fill="none" fill-rule="evenodd"/><path d="M1230.46 1830.79 1064.5 1581.5" stroke="#000000" stroke-width="9.16667" stroke-miterlimit="8" fill="none" fill-rule="evenodd"/><path d="M1064.87 1580.52 676.5 1423.5" stroke="#000000" stroke-width="9.16667" stroke-miterlimit="8" fill="none" fill-rule="evenodd"/><path d="M0 0 325.363 124.546" stroke="#000000" stroke-width="9.16667" stroke-miterlimit="8" fill="none" fill-rule="evenodd" transform="matrix(-1 0 0 1 678.862 1422.5)"/><path d="M0 0 166.038 298.083" stroke="#000000" stroke-width="9.16667" stroke-miterlimit="8" fill="none" fill-rule="evenodd" transform="matrix(-1 0 0 1 350.538 1548.5)"/><path d="M643.5 1421C643.5 1403.05 658.051 1388.5 676 1388.5 693.949 1388.5 708.5 1403.05 708.5 1421 708.5 1438.95 693.949 1453.5 676 1453.5 658.051 1453.5 643.5 1438.95 643.5 1421Z" stroke="#000000" stroke-width="20.625" stroke-miterlimit="8" fill="#FFFFFF" fill-rule="evenodd"/><path d="M316.5 1536.5C316.5 1518.83 331.051 1504.5 349 1504.5 366.949 1504.5 381.5 1518.83 381.5 1536.5 381.5 1554.17 366.949 1568.5 349 1568.5 331.051 1568.5 316.5 1554.17 316.5 1536.5Z" stroke="#000000" stroke-width="20.625" stroke-miterlimit="8" fill="#FFFFFF" fill-rule="evenodd"/><path d="M145.5 1844C145.5 1826.05 160.051 1811.5 178 1811.5 195.949 1811.5 210.5 1826.05 210.5 1844 210.5 1861.95 195.949 1876.5 178 1876.5 160.051 1876.5 145.5 1861.95 145.5 1844Z" stroke="#000000" stroke-width="20.625" stroke-miterlimit="8" fill="#FFFFFF" fill-rule="evenodd"/><path d="M308.5 2166C308.5 2148.05 323.051 2133.5 341 2133.5 358.949 2133.5 373.5 2148.05 373.5 2166 373.5 2183.95 358.949 2198.5 341 2198.5 323.051 2198.5 308.5 2183.95 308.5 2166Z" stroke="#000000" stroke-width="20.625" stroke-miterlimit="8" fill="#FFFFFF" fill-rule="evenodd"/><path d="M330.5 1987C330.5 1969.05 345.051 1954.5 363 1954.5 380.949 1954.5 395.5 1969.05 395.5 1987 395.5 2004.95 380.949 2019.5 363 2019.5 345.051 2019.5 330.5 2004.95 330.5 1987Z" stroke="#000000" stroke-width="20.625" stroke-miterlimit="8" fill="#FFFFFF" fill-rule="evenodd"/><path d="M363.5 1874C363.5 1856.05 378.051 1841.5 396 1841.5 413.949 1841.5 428.5 1856.05 428.5 1874 428.5 1891.95 413.949 1906.5 396 1906.5 378.051 1906.5 363.5 1891.95 363.5 1874Z" stroke="#000000" stroke-width="20.625" stroke-miterlimit="8" fill="#FFFFFF" fill-rule="evenodd"/><path d="M489.5 1665C489.5 1647.05 504.051 1632.5 522 1632.5 539.949 1632.5 554.5 1647.05 554.5 1665 554.5 1682.95 539.949 1697.5 522 1697.5 504.051 1697.5 489.5 1682.95 489.5 1665Z" stroke="#000000" stroke-width="20.625" stroke-miterlimit="8" fill="#FFFFFF" fill-rule="evenodd"/><path d="M602.5 1885C602.5 1867.05 617.051 1852.5 635 1852.5 652.949 1852.5 667.5 1867.05 667.5 1885 667.5 1902.95 652.949 1917.5 635 1917.5 617.051 1917.5 602.5 1902.95 602.5 1885Z" stroke="#000000" stroke-width="20.625" stroke-miterlimit="8" fill="#FFFFFF" fill-rule="evenodd"/><path d="M646.5 2093C646.5 2075.05 661.051 2060.5 679 2060.5 696.949 2060.5 711.5 2075.05 711.5 2093 711.5 2110.95 696.949 2125.5 679 2125.5 661.051 2125.5 646.5 2110.95 646.5 2093Z" stroke="#000000" stroke-width="20.625" stroke-miterlimit="8" fill="#FFFFFF" fill-rule="evenodd"/><path d="M899.5 1948C899.5 1930.05 914.051 1915.5 932 1915.5 949.949 1915.5 964.5 1930.05 964.5 1948 964.5 1965.95 949.949 1980.5 932 1980.5 914.051 1980.5 899.5 1965.95 899.5 1948Z" stroke="#000000" stroke-width="20.625" stroke-miterlimit="8" fill="#FFFFFF" fill-rule="evenodd"/><path d="M962.5 2198C962.5 2180.05 977.051 2165.5 995 2165.5 1012.95 2165.5 1027.5 2180.05 1027.5 2198 1027.5 2215.95 1012.95 2230.5 995 2230.5 977.051 2230.5 962.5 2215.95 962.5 2198Z" stroke="#000000" stroke-width="20.625" stroke-miterlimit="8" fill="#FFFFFF" fill-rule="evenodd"/><path d="M1062.5 2031C1062.5 2013.05 1076.83 1998.5 1094.5 1998.5 1112.17 1998.5 1126.5 2013.05 1126.5 2031 1126.5 2048.95 1112.17 2063.5 1094.5 2063.5 1076.83 2063.5 1062.5 2048.95 1062.5 2031Z" stroke="#000000" stroke-width="20.625" stroke-miterlimit="8" fill="#FFFFFF" fill-rule="evenodd"/><path d="M1240.5 2138C1240.5 2120.05 1255.05 2105.5 1273 2105.5 1290.95 2105.5 1305.5 2120.05 1305.5 2138 1305.5 2155.95 1290.95 2170.5 1273 2170.5 1255.05 2170.5 1240.5 2155.95 1240.5 2138Z" stroke="#000000" stroke-width="20.625" stroke-miterlimit="8" fill="#FFFFFF" fill-rule="evenodd"/><path d="M1195.5 1835C1195.5 1817.05 1210.05 1802.5 1228 1802.5 1245.95 1802.5 1260.5 1817.05 1260.5 1835 1260.5 1852.95 1245.95 1867.5 1228 1867.5 1210.05 1867.5 1195.5 1852.95 1195.5 1835Z" stroke="#000000" stroke-width="20.625" stroke-miterlimit="8" fill="#FFFFFF" fill-rule="evenodd"/><path d="M989.5 1791C989.5 1773.05 1004.05 1758.5 1022 1758.5 1039.95 1758.5 1054.5 1773.05 1054.5 1791 1054.5 1808.95 1039.95 1823.5 1022 1823.5 1004.05 1823.5 989.5 1808.95 989.5 1791Z" stroke="#000000" stroke-width="20.625" stroke-miterlimit="8" fill="#FFFFFF" fill-rule="evenodd"/><path d="M1030.5 1579.5C1030.5 1561.83 1045.05 1547.5 1063 1547.5 1080.95 1547.5 1095.5 1561.83 1095.5 1579.5 1095.5 1597.17 1080.95 1611.5 1063 1611.5 1045.05 1611.5 1030.5 1597.17 1030.5 1579.5Z" stroke="#000000" stroke-width="20.625" stroke-miterlimit="8" fill="#FFFFFF" fill-rule="evenodd"/><path d="M816.5 1626C816.5 1608.05 831.051 1593.5 849 1593.5 866.949 1593.5 881.5 1608.05 881.5 1626 881.5 1643.95 866.949 1658.5 849 1658.5 831.051 1658.5 816.5 1643.95 816.5 1626Z" stroke="#000000" stroke-width="20.625" stroke-miterlimit="8" fill="#FFFFFF" fill-rule="evenodd"/><path d="M132.5 2098C132.5 2080.05 147.051 2065.5 165 2065.5 182.949 2065.5 197.5 2080.05 197.5 2098 197.5 2115.95 182.949 2130.5 165 2130.5 147.051 2130.5 132.5 2115.95 132.5 2098Z" stroke="#000000" stroke-width="20.625" stroke-miterlimit="8" fill="#FFFFFF" fill-rule="evenodd"/><path d="M1092.5 2268C1092.5 2250.05 1107.05 2235.5 1125 2235.5 1142.95 2235.5 1157.5 2250.05 1157.5 2268 1157.5 2285.95 1142.95 2300.5 1125 2300.5 1107.05 2300.5 1092.5 2285.95 1092.5 2268Z" stroke="#000000" stroke-width="20.625" stroke-miterlimit="8" fill="#FFFFFF" fill-rule="evenodd"/></g></svg>